<svg width="960" height="640" viewBox="0 0 960 640" fill="none" xmlns="http://www.w3.org/2000/svg">
  <defs>
    <linearGradient id="bg" x1="0" y1="0" x2="960" y2="640" gradientUnits="userSpaceOnUse">
      <stop stop-color="#38BDF8"/>
      <stop offset="0.5" stop-color="#6366F1"/>
      <stop offset="1" stop-color="#22D3EE"/>
    </linearGradient>
    <linearGradient id="card" x1="130" y1="120" x2="680" y2="520" gradientUnits="userSpaceOnUse">
      <stop stop-color="#FFFFFF" stop-opacity="0.92"/>
      <stop offset="1" stop-color="#E6F6FF" stop-opacity="0.92"/>
    </linearGradient>
  </defs>
  <rect width="960" height="640" rx="40" fill="url(#bg)"/>
  <circle cx="130" cy="120" r="88" fill="#F0ABFC" fill-opacity="0.52"/>
  <circle cx="810" cy="120" r="110" fill="#BAE6FD" fill-opacity="0.65"/>
  <circle cx="850" cy="530" r="136" fill="#67E8F9" fill-opacity="0.45"/>
  <circle cx="220" cy="540" r="126" fill="#93C5FD" fill-opacity="0.5"/>

  <rect x="146" y="126" width="662" height="390" rx="24" fill="url(#card)"/>
  <rect x="186" y="170" width="290" height="22" rx="11" fill="#2F6FD1"/>
  <rect x="186" y="206" width="388" height="14" rx="7" fill="#7AA8E8"/>

  <rect x="186" y="252" width="196" height="106" rx="18" fill="#DBEAFE"/>
  <rect x="402" y="252" width="196" height="106" rx="18" fill="#CFFAFE"/>
  <rect x="618" y="252" width="150" height="106" rx="18" fill="#EDE9FE"/>

  <rect x="186" y="382" width="354" height="94" rx="18" fill="#EEF2FF"/>
  <rect x="556" y="382" width="212" height="94" rx="18" fill="#E0F2FE"/>

  <circle cx="745" cy="190" r="30" fill="#60A5FA"/>
  <path d="M745 170L751 184L766 186L755 197L758 212L745 204L732 212L735 197L724 186L739 184L745 170Z" fill="white"/>
</svg>
